# xmcd
#
# Track frame offsets:
#   150
#   12738
#   29225
#   40746
#   57155
#   79596
#   93977
#   110985
#   123260
#   141506
#   156953
#   173103
#   192983
#   215263
#   235083
#   247732
#   266895
#   287749
#   301382
#   317616
#   329979
#
# Disc length: 4619 seconds
#
# Revision: 0
# Processed by: cddbd v1.5.1PL0 Copyright (c) Steve Scherf et al.
# Submitted via: uFREEDB 1.6.0
#
DISCID=3b120915
DTITLE=Iris Dement - Infamous Angel
DYEAR=1900
DGENRE=Country
TTITLE0=Let the Mystery Be
TTITLE1=Theses hills
TTITLE2=Hotter than mojav in my heart
TTITLE3=When love was young
TTITLE4=Our town
TTITLE5=Fifty miles of elbow room
TTITLE6=Infamous angel
TTITLE7=Sweet forgiveness
TTITLE8=After your gone
TTITLE9=Mama's Opry
TTITLE10=Higher ground
TTITLE11=
TTITLE12=
TTITLE13=
TTITLE14=
TTITLE15=
TTITLE16=
TTITLE17=
TTITLE18=
TTITLE19=
TTITLE20=
EXTD=
EXTT0=
EXTT1=
EXTT2=
EXTT3=
EXTT4=
EXTT5=
EXTT6=
EXTT7=
EXTT8=
EXTT9=
EXTT10=
EXTT11=
EXTT12=
EXTT13=
EXTT14=
EXTT15=
EXTT16=
EXTT17=
EXTT18=
EXTT19=
EXTT20=
PLAYORDER=
